<?xml version="1.0" encoding="UTF-8" standalone="no"?>
<!-- Created with Inkscape (http://www.inkscape.org/) -->

<svg
   width="48"
   height="48"
   viewBox="0 0 31.115 31.115"
   version="1.1"
   id="svg8"
   inkscape:version="1.1.1 (3bf5ae0d25, 2021-09-20)"
   sodipodi:docname="favicon.svg"
   xmlns:inkscape="http://www.inkscape.org/namespaces/inkscape"
   xmlns:sodipodi="http://sodipodi.sourceforge.net/DTD/sodipodi-0.dtd"
   xmlns="http://www.w3.org/2000/svg"
   xmlns:svg="http://www.w3.org/2000/svg"
   xmlns:rdf="http://www.w3.org/1999/02/22-rdf-syntax-ns#"
   xmlns:cc="http://creativecommons.org/ns#"
   xmlns:dc="http://purl.org/dc/elements/1.1/">
  <defs
     id="defs2">
    <marker
       inkscape:stockid="Arrow2Mend"
       orient="auto"
       refY="0"
       refX="0"
       id="marker1079"
       style="overflow:visible"
       inkscape:isstock="true">
      <path
         id="path1077"
         style="fill:#000000;fill-opacity:1;fill-rule:evenodd;stroke:#000000;stroke-width:0.625;stroke-linejoin:round;stroke-opacity:1"
         d="M 8.7185878,4.0337352 -2.2072895,0.01601326 8.7185884,-4.0017078 c -1.7454984,2.3720609 -1.7354408,5.6174519 -6e-7,8.035443 z"
         transform="scale(-0.6)"
         inkscape:connector-curvature="0" />
    </marker>
    <marker
       inkscape:isstock="true"
       style="overflow:visible"
       id="marker931"
       refX="0"
       refY="0"
       orient="auto"
       inkscape:stockid="Arrow2Mend">
      <path
         transform="scale(-0.6)"
         d="M 8.7185878,4.0337352 -2.2072895,0.01601326 8.7185884,-4.0017078 c -1.7454984,2.3720609 -1.7354408,5.6174519 -6e-7,8.035443 z"
         style="fill:#000000;fill-opacity:1;fill-rule:evenodd;stroke:#000000;stroke-width:0.625;stroke-linejoin:round;stroke-opacity:1"
         id="path929"
         inkscape:connector-curvature="0" />
    </marker>
    <marker
       inkscape:isstock="true"
       style="overflow:visible"
       id="marker904"
       refX="0"
       refY="0"
       orient="auto"
       inkscape:stockid="Arrow2Mend">
      <path
         transform="scale(-0.6)"
         d="M 8.7185878,4.0337352 -2.2072895,0.01601326 8.7185884,-4.0017078 c -1.7454984,2.3720609 -1.7354408,5.6174519 -6e-7,8.035443 z"
         style="fill:#000000;fill-opacity:1;fill-rule:evenodd;stroke:#000000;stroke-width:0.625;stroke-linejoin:round;stroke-opacity:1"
         id="path902"
         inkscape:connector-curvature="0" />
    </marker>
    <marker
       inkscape:stockid="Arrow2Mend"
       orient="auto"
       refY="0"
       refX="0"
       id="marker1003"
       style="overflow:visible"
       inkscape:isstock="true">
      <path
         id="path1001"
         style="fill:#000000;fill-opacity:1;fill-rule:evenodd;stroke:#000000;stroke-width:0.625;stroke-linejoin:round;stroke-opacity:1"
         d="M 8.7185878,4.0337352 -2.2072895,0.01601326 8.7185884,-4.0017078 c -1.7454984,2.3720609 -1.7354408,5.6174519 -6e-7,8.035443 z"
         transform="scale(-0.6)"
         inkscape:connector-curvature="0" />
    </marker>
    <marker
       inkscape:stockid="Arrow1Lend"
       orient="auto"
       refY="0"
       refX="0"
       id="Arrow1Lend"
       style="overflow:visible"
       inkscape:isstock="true">
      <path
         id="path867"
         d="M 0,0 5,-5 -12.5,0 5,5 Z"
         style="fill:#000000;fill-opacity:1;fill-rule:evenodd;stroke:#000000;stroke-width:1pt;stroke-opacity:1"
         transform="matrix(-0.8,0,0,-0.8,-10,0)"
         inkscape:connector-curvature="0" />
    </marker>
  </defs>
  <sodipodi:namedview
     id="base"
     pagecolor="#ffffff"
     bordercolor="#666666"
     borderopacity="1.0"
     inkscape:pageopacity="0.0"
     inkscape:pageshadow="2"
     inkscape:zoom="8"
     inkscape:cx="1.625"
     inkscape:cy="21.0625"
     inkscape:document-units="mm"
     inkscape:current-layer="layer1"
     showgrid="false"
     inkscape:window-width="1916"
     inkscape:window-height="1042"
     inkscape:window-x="1920"
     inkscape:window-y="18"
     inkscape:window-maximized="1"
     fit-margin-top="0"
     fit-margin-left="0"
     fit-margin-right="0"
     fit-margin-bottom="0"
     inkscape:pagecheckerboard="0"
     units="px"
     scale-x="2.45"
     viewbox-width="30.48"
     width="48px" />
  <metadata
     id="metadata5">
    <rdf:RDF>
      <cc:Work
         rdf:about="">
        <dc:format>image/svg+xml</dc:format>
        <dc:type
           rdf:resource="http://purl.org/dc/dcmitype/StillImage" />
      </cc:Work>
    </rdf:RDF>
  </metadata>
  <g
     inkscape:label="Layer 1"
     inkscape:groupmode="layer"
     id="layer1"
     transform="translate(-85.964647,-86.104711)">
    <flowRoot
       xml:space="preserve"
       id="flowRoot4825"
       style="font-style:normal;font-weight:normal;font-size:16px;line-height:1.25;font-family:sans-serif;letter-spacing:0px;word-spacing:0px;fill:#000000;fill-opacity:1;stroke:none"><flowRegion
         id="flowRegion4827"><rect
           id="rect4829"
           width="486.99423"
           height="331.26166"
           x="221.72095"
           y="296.34518" /></flowRegion><flowPara
         id="flowPara4831" /></flowRoot>
    <g
       id="g961"
       inkscape:export-xdpi="300"
       inkscape:export-ydpi="300">
      <rect
         y="-12.959892"
         x="130.04843"
         height="27.234127"
         width="27.234131"
         id="rect1112"
         style="fill:none;fill-opacity:0.482587;stroke:#000000;stroke-width:0.263134;stroke-miterlimit:4;stroke-dasharray:none;stroke-dashoffset:0;stroke-opacity:1"
         transform="rotate(44.777411)"
         ry="9.2780676" />
      <path
         d="m 106.73229,104.1899 c 1.36069,0.21064 2.6347,-0.72177 2.84536,-2.08255 0.21067,-1.36078 -0.72176,-2.634761 -2.08245,-2.845401 -1.36094,-0.21068 -2.63482,0.721753 -2.84549,2.082531 -0.21066,1.36079 0.72164,2.63474 2.08258,2.84542"
         style="fill:#d2b0db;fill-opacity:1;fill-rule:nonzero;stroke:none;stroke-width:0.0127524"
         id="path1114"
         inkscape:connector-curvature="0" />
      <path
         d="m 106.73229,104.1899 -0.0293,0.18904 c 1.46531,0.2267 2.83669,-0.77709 3.06366,-2.24233 0.22673,-1.4654 -0.77694,-2.83686 -2.24221,-3.063821 -1.46543,-0.226724 -2.83695,0.777051 -3.06393,2.242411 -0.22671,1.46528 0.77708,2.83676 2.24248,3.06374 l 0.0293,-0.18904 0.0293,-0.18916 c -0.62897,-0.0975 -1.15709,-0.43965 -1.50554,-0.91543 -0.34816,-0.476 -0.5145,-1.08282 -0.41729,-1.71156 0.0975,-0.62883 0.43952,-1.15696 0.91531,-1.5054 0.47601,-0.34815 1.08284,-0.514487 1.71187,-0.417369 0.6287,0.09758 1.15684,0.43962 1.50529,0.915399 0.34816,0.47599 0.5145,1.08282 0.41727,1.71169 -0.0975,0.6287 -0.4395,1.15683 -0.91529,1.50527 -0.47601,0.34815 -1.08287,0.51461 -1.71162,0.4174 l -0.0293,0.18916"
         style="fill:#c59fd2;fill-opacity:1;fill-rule:nonzero;stroke:none;stroke-width:0.0127524"
         id="path1116"
         inkscape:connector-curvature="0" />
      <path
         inkscape:connector-curvature="0"
         id="path1118"
         style="fill:#a967ba;fill-opacity:1;fill-rule:nonzero;stroke:none;stroke-width:0.0127524"
         d="m 108.73492,104.1422 c 1.36068,0.21064 2.63469,-0.72177 2.84536,-2.08256 0.21066,-1.36078 -0.72177,-2.634756 -2.08246,-2.845397 -1.36094,-0.210679 -2.63482,0.721752 -2.84549,2.082537 -0.21066,1.36078 0.72165,2.63474 2.08259,2.84542" />
      <path
         inkscape:connector-curvature="0"
         id="path1120"
         style="fill:#8f45a8;fill-opacity:1;fill-rule:nonzero;stroke:none;stroke-width:0.0127524"
         d="m 108.73492,104.1422 -0.0293,0.18903 c 1.46531,0.22671 2.8367,-0.77709 3.06366,-2.24232 0.22673,-1.4654 -0.77694,-2.836866 -2.24221,-3.063825 -1.46543,-0.226727 -2.83694,0.777048 -3.06393,2.242405 -0.22671,1.46528 0.77709,2.83676 2.24248,3.06374 l 0.0293,-0.18903 0.0293,-0.18916 c -0.62897,-0.0975 -1.15709,-0.43966 -1.50554,-0.91544 -0.34816,-0.47599 -0.5145,-1.08282 -0.41729,-1.71156 0.0975,-0.62883 0.43952,-1.15695 0.91531,-1.505395 0.47601,-0.348151 1.08285,-0.514487 1.71188,-0.417369 0.62869,0.09758 1.15683,0.439619 1.50528,0.915394 0.34816,0.476 0.5145,1.08282 0.41727,1.71169 -0.0975,0.6287 -0.4395,1.15683 -0.91529,1.50527 -0.476,0.34815 -1.08286,0.51461 -1.71162,0.41741 l -0.0293,0.18916" />
      <path
         inkscape:connector-curvature="0"
         id="path1126"
         d="M 92.02389,101.70425 H 99.7023"
         style="fill:none;stroke:#000000;stroke-width:0.233392;stroke-linecap:butt;stroke-linejoin:miter;stroke-miterlimit:4;stroke-dasharray:none;stroke-opacity:1;marker-end:url(#marker1079)"
         sodipodi:nodetypes="cc" />
      <path
         inkscape:connector-curvature="0"
         id="path1128"
         style="fill:#6a78c4;fill-opacity:1;fill-rule:nonzero;stroke:none;stroke-width:0.0127539"
         d="m 89.910594,103.44026 c 0.959956,0.98745 2.538696,1.0097 3.526149,0.0498 0.987453,-0.95996 1.00978,-2.53869 0.04982,-3.526145 -0.959965,-0.987461 -2.538731,-1.009744 -3.526184,-0.04979 -0.987453,0.959955 -1.009754,2.538715 -0.04979,3.526185" />
      <path
         inkscape:connector-curvature="0"
         id="path1130"
         style="fill:#4c5cb3;fill-opacity:1;fill-rule:nonzero;stroke:none;stroke-width:0.0127539"
         d="m 89.910594,103.44026 -0.137171,0.13335 c 1.033773,1.0632 2.733374,1.08719 3.796734,0.0536 1.063257,-1.03384 1.087264,-2.73344 0.05367,-3.796815 -1.033809,-1.063238 -2.733409,-1.087227 -3.796826,-0.05355 -1.063201,1.033715 -1.087207,2.733315 -0.05358,3.796735 l 0.137171,-0.13335 0.137263,-0.13344 c -0.443481,-0.45637 -0.659307,-1.04761 -0.651169,-1.63736 0.0085,-0.58971 0.240956,-1.17454 0.697118,-1.61814 0.456395,-0.443545 1.047552,-0.659362 1.637269,-0.651243 0.589748,0.0085 1.174565,0.241038 1.618321,0.697143 0.443354,0.45642 0.659271,1.04756 0.651169,1.63735 -0.0086,0.58968 -0.240992,1.1745 -0.697245,1.61819 -0.456304,0.44346 -1.04746,0.65928 -1.637142,0.65119 -0.589783,-0.009 -1.174692,-0.24098 -1.618321,-0.69713 l -0.137263,0.13344" />
      <path
         transform="rotate(-150.17137)"
         d="m -144.24865,-30.129393 a 3.9289012,3.9289012 0 0 1 -4.46575,-1.74371 3.9289012,3.9289012 0 0 1 0.54465,-4.76307"
         sodipodi:end="3.9116453"
         sodipodi:start="1.2868568"
         sodipodi:ry="3.9289012"
         sodipodi:rx="3.9289012"
         sodipodi:cy="-33.900978"
         sodipodi:cx="-145.34929"
         sodipodi:type="arc"
         id="path1134"
         style="fill:none;fill-opacity:1;fill-rule:nonzero;stroke:#000000;stroke-width:0.211912;stroke-linecap:round;stroke-linejoin:miter;stroke-miterlimit:4;stroke-dasharray:none;stroke-dashoffset:0;stroke-opacity:1;paint-order:markers stroke fill"
         sodipodi:open="true"
         sodipodi:arc-type="arc" />
      <path
         sodipodi:open="true"
         style="fill:none;fill-opacity:1;fill-rule:nonzero;stroke:#000000;stroke-width:0.211912;stroke-linecap:round;stroke-linejoin:miter;stroke-miterlimit:4;stroke-dasharray:none;stroke-dashoffset:0;stroke-opacity:1;paint-order:markers stroke fill"
         id="path1136"
         sodipodi:type="arc"
         sodipodi:cx="-145.36069"
         sodipodi:cy="-33.922935"
         sodipodi:rx="5.4468632"
         sodipodi:ry="5.4468632"
         sodipodi:start="1.2868568"
         sodipodi:end="3.9116453"
         d="m -143.83481,-28.694169 a 5.4468632,5.4468632 0 0 1 -6.19113,-2.417406 5.4468632,5.4468632 0 0 1 0.75509,-6.60332"
         transform="rotate(-150.17137)"
         sodipodi:arc-type="arc" />
      <path
         inkscape:connector-curvature="0"
         id="path1142"
         style="fill:#eaa2a6;fill-opacity:1;fill-rule:nonzero;stroke:none;stroke-width:0.0127524"
         d="m 101.89925,104.69517 c -1.36069,-0.21064 -2.634696,0.72177 -2.845364,2.08255 -0.210661,1.36079 0.721764,2.63476 2.082454,2.8454 1.36094,0.21068 2.63482,-0.72175 2.84548,-2.08253 0.21067,-1.36079 -0.72164,-2.63474 -2.08257,-2.84542" />
      <path
         inkscape:connector-curvature="0"
         id="path1144"
         style="fill:#e59393;fill-opacity:1;fill-rule:nonzero;stroke:none;stroke-width:0.0127524"
         d="m 101.89921,104.69517 0.0292,-0.18904 c -1.4653,-0.2267 -2.836697,0.77709 -3.063658,2.24233 -0.226733,1.4654 0.77694,2.83686 2.242208,3.06382 1.46543,0.22672 2.83694,-0.77705 3.06393,-2.24241 0.22671,-1.46527 -0.77708,-2.83676 -2.24248,-3.06374 l -0.0292,0.18904 -0.0293,0.18916 c 0.62896,0.0975 1.15709,0.43966 1.50553,0.91543 0.34816,0.47599 0.5145,1.08282 0.41729,1.71156 -0.0975,0.62883 -0.43952,1.15696 -0.91531,1.5054 -0.476,0.34816 -1.08284,0.51449 -1.71187,0.41737 -0.6287,-0.0976 -1.15684,-0.43962 -1.505284,-0.91539 -0.348159,-0.47601 -0.5145,-1.08283 -0.417272,-1.7117 0.09746,-0.6287 0.439504,-1.15682 0.915296,-1.50526 0.476,-0.34816 1.08286,-0.51462 1.71162,-0.41741 l 0.0293,-0.18916" />
      <path
         d="m 99.505857,97.762726 c 0.813263,1.111182 2.373313,1.352782 3.484593,0.539446 1.11118,-0.813263 1.3526,-2.373343 0.53934,-3.484522 -0.81318,-1.111075 -2.37323,-1.352675 -3.48442,-0.539417 -1.111274,0.813337 -1.352697,2.373414 -0.539513,3.484493"
         style="fill:#a8d89d;fill-opacity:1;fill-rule:nonzero;stroke:none;stroke-width:0.0127523"
         id="path1146"
         inkscape:connector-curvature="0" />
      <path
         d="m 99.505853,97.762726 -0.154473,0.113036 c 0.87587,1.196517 2.55544,1.456528 3.7521,0.580857 1.19642,-0.875799 1.45643,-2.555359 0.58075,-3.75203 -0.87572,-1.19631 -2.55536,-1.456421 -3.751922,-0.580828 -1.196513,0.875873 -1.456446,2.555541 -0.580928,3.752001 l 0.154473,-0.113036 0.154443,-0.113065 c -0.375744,-0.513397 -0.507229,-1.128772 -0.417189,-1.711583 0.0904,-0.582758 0.401872,-1.129466 0.915303,-1.505397 0.51347,-0.375646 1.12877,-0.507233 1.71158,-0.417189 0.58286,0.09032 1.12957,0.401794 1.50542,0.915116 0.37573,0.513579 0.50739,1.128982 0.41717,1.711765 -0.0903,0.582861 -0.4018,1.129569 -0.91519,1.505322 -0.51351,0.375823 -1.1288,0.507411 -1.71169,0.417268 -0.58268,-0.0903 -1.12957,-0.401798 -1.505404,-0.915302 l -0.154443,0.113065"
         style="fill:#9dce9a;fill-opacity:1;fill-rule:nonzero;stroke:none;stroke-width:0.0127523"
         id="path1148"
         inkscape:connector-curvature="0" />
      <path
         d="m 101.89925,106.7056 c -1.36069,-0.21065 -2.634694,0.72177 -2.845363,2.08255 -0.21066,1.36078 0.721769,2.63476 2.082463,2.8454 1.36093,0.21068 2.63482,-0.72175 2.84548,-2.08253 0.21067,-1.36079 -0.72164,-2.63475 -2.08258,-2.84542"
         style="fill:#d64c53;fill-opacity:1;fill-rule:nonzero;stroke:none;stroke-width:0.0127524"
         id="path1150"
         inkscape:connector-curvature="0" />
      <path
         d="m 101.89919,106.7056 0.0293,-0.18904 c -1.46531,-0.2267 -2.836702,0.77709 -3.063664,2.24233 -0.226734,1.4654 0.776939,2.83686 2.242204,3.06382 1.46544,0.22673 2.83695,-0.77705 3.06394,-2.24241 0.22671,-1.46528 -0.77709,-2.83676 -2.24248,-3.06374 l -0.0293,0.18904 -0.0293,0.18915 c 0.62897,0.0975 1.15709,0.43966 1.50554,0.91544 0.34815,0.47599 0.51449,1.08282 0.41729,1.71156 -0.0975,0.62883 -0.43953,1.15696 -0.91532,1.5054 -0.476,0.34815 -1.08284,0.51449 -1.71187,0.41737 -0.6287,-0.0976 -1.15684,-0.43962 -1.505284,-0.9154 -0.348158,-0.476 -0.514496,-1.08282 -0.41727,-1.71169 0.09746,-0.6287 0.439504,-1.15683 0.915294,-1.50527 0.476,-0.34815 1.08286,-0.51461 1.71162,-0.41741 l 0.0293,-0.18915"
         style="fill:#cd2e2f;fill-opacity:1;fill-rule:nonzero;stroke:none;stroke-width:0.0127524"
         id="path1152"
         inkscape:connector-curvature="0" />
      <path
         inkscape:connector-curvature="0"
         id="path1156"
         style="fill:#56b342;fill-opacity:1;fill-rule:nonzero;stroke:none;stroke-width:0.0127523"
         d="m 99.505836,95.712157 c 0.813264,1.111179 2.373314,1.352778 3.484594,0.539442 1.11118,-0.81326 1.3526,-2.373338 0.53934,-3.484517 -0.81319,-1.111076 -2.37324,-1.352675 -3.48442,-0.539415 -1.111277,0.813336 -1.352698,2.373414 -0.539514,3.48449" />
      <path
         inkscape:connector-curvature="0"
         id="path1158"
         style="fill:#3b9c3b;fill-opacity:1;fill-rule:nonzero;stroke:none;stroke-width:0.0127523"
         d="m 99.505836,95.712157 -0.154462,0.113049 c 0.875876,1.196515 2.555436,1.456525 3.752106,0.580855 1.19641,-0.8758 1.45642,-2.555363 0.58075,-3.752028 -0.87572,-1.19631 -2.55536,-1.456422 -3.751924,-0.580827 -1.196516,0.875875 -1.45645,2.55554 -0.580932,3.752 l 0.154462,-0.113049 0.154462,-0.113049 c -0.37575,-0.513398 -0.507233,-1.128771 -0.417192,-1.711583 0.0904,-0.582758 0.401872,-1.129467 0.915294,-1.505396 0.51348,-0.375647 1.12877,-0.507234 1.71159,-0.417192 0.58286,0.09032 1.12957,0.401796 1.50542,0.915119 0.37572,0.513576 0.50738,1.128976 0.41716,1.711762 -0.0903,0.58286 -0.40179,1.129569 -0.91519,1.505319 -0.5135,0.375826 -1.1288,0.507412 -1.71169,0.417268 -0.58268,-0.09029 -1.12957,-0.401796 -1.505392,-0.915297 l -0.154462,0.113049" />
      <path
         sodipodi:open="true"
         style="fill:none;fill-opacity:1;fill-rule:nonzero;stroke:#000000;stroke-width:0.211912;stroke-linecap:round;stroke-linejoin:miter;stroke-miterlimit:4;stroke-dasharray:none;stroke-dashoffset:0;stroke-opacity:1;paint-order:markers stroke fill"
         id="path1162"
         sodipodi:type="arc"
         sodipodi:cx="32.841805"
         sodipodi:cy="-134.47546"
         sodipodi:rx="3.9289012"
         sodipodi:ry="3.9289012"
         sodipodi:start="1.2868568"
         sodipodi:end="3.9116453"
         d="m 33.942445,-130.70388 a 3.9289012,3.9289012 0 0 1 -4.465754,-1.74371 3.9289012,3.9289012 0 0 1 0.544657,-4.76307"
         transform="rotate(119.08548)"
         sodipodi:arc-type="arc" />
      <path
         transform="rotate(119.08548)"
         d="m 34.361759,-129.25881 a 5.4468632,5.4468632 0 0 1 -6.191134,-2.41741 5.4468632,5.4468632 0 0 1 0.75509,-6.60332"
         sodipodi:end="3.9116453"
         sodipodi:start="1.2868568"
         sodipodi:ry="5.4468632"
         sodipodi:rx="5.4468632"
         sodipodi:cy="-134.48758"
         sodipodi:cx="32.835876"
         sodipodi:type="arc"
         id="path1164"
         style="fill:none;fill-opacity:1;fill-rule:nonzero;stroke:#000000;stroke-width:0.211912;stroke-linecap:round;stroke-linejoin:miter;stroke-miterlimit:4;stroke-dasharray:none;stroke-dashoffset:0;stroke-opacity:1;paint-order:markers stroke fill"
         sodipodi:open="true"
         sodipodi:arc-type="arc" />
      <path
         transform="matrix(-0.52717326,-0.84975782,-0.84975782,0.52717326,0,0)"
         d="m -145.2786,-24.834202 a 3.9289012,3.9289012 0 0 1 -4.46576,-1.74371 3.9289012,3.9289012 0 0 1 0.54466,-4.76307"
         sodipodi:end="3.9116453"
         sodipodi:start="1.2868568"
         sodipodi:ry="3.9289012"
         sodipodi:rx="3.9289012"
         sodipodi:cy="-28.605787"
         sodipodi:cx="-146.37924"
         sodipodi:type="arc"
         id="path1166"
         style="fill:none;fill-opacity:1;fill-rule:nonzero;stroke:#000000;stroke-width:0.211912;stroke-linecap:round;stroke-linejoin:miter;stroke-miterlimit:4;stroke-dasharray:none;stroke-dashoffset:0;stroke-opacity:1;paint-order:markers stroke fill"
         sodipodi:open="true"
         sodipodi:arc-type="arc" />
      <path
         sodipodi:open="true"
         style="fill:none;fill-opacity:1;fill-rule:nonzero;stroke:#000000;stroke-width:0.211912;stroke-linecap:round;stroke-linejoin:miter;stroke-miterlimit:4;stroke-dasharray:none;stroke-dashoffset:0;stroke-opacity:1;paint-order:markers stroke fill"
         id="path1168"
         sodipodi:type="arc"
         sodipodi:cx="-146.39064"
         sodipodi:cy="-28.627748"
         sodipodi:rx="5.4468632"
         sodipodi:ry="5.4468632"
         sodipodi:start="1.2868568"
         sodipodi:end="3.9116453"
         d="m -144.86476,-23.398982 a 5.4468632,5.4468632 0 0 1 -6.19113,-2.417406 5.4468632,5.4468632 0 0 1 0.75509,-6.60332"
         transform="matrix(-0.52717326,-0.84975782,-0.84975782,0.52717326,0,0)"
         sodipodi:arc-type="arc" />
    </g>
  </g>
</svg>
