<?xml version="1.0" encoding="UTF-8" standalone="no"?>
<!-- Created with Inkscape (http://www.inkscape.org/) -->

<svg
   width="143.84425mm"
   height="30.392403mm"
   viewBox="0 0 143.84426 30.392402"
   version="1.1"
   id="svg8"
   inkscape:version="1.2.2 (b0a8486541, 2022-12-01)"
   sodipodi:docname="juliamolsim.svg"
   inkscape:export-filename="juliamolsim.pdf"
   inkscape:export-xdpi="300"
   inkscape:export-ydpi="300"
   xmlns:inkscape="http://www.inkscape.org/namespaces/inkscape"
   xmlns:sodipodi="http://sodipodi.sourceforge.net/DTD/sodipodi-0.dtd"
   xmlns="http://www.w3.org/2000/svg"
   xmlns:svg="http://www.w3.org/2000/svg"
   xmlns:rdf="http://www.w3.org/1999/02/22-rdf-syntax-ns#"
   xmlns:cc="http://creativecommons.org/ns#"
   xmlns:dc="http://purl.org/dc/elements/1.1/">
  <defs
     id="defs2">
    <marker
       inkscape:stockid="Arrow2Mend"
       orient="auto"
       refY="0"
       refX="0"
       id="marker1079"
       style="overflow:visible"
       inkscape:isstock="true">
      <path
         id="path1077"
         style="fill:#000000;fill-opacity:1;fill-rule:evenodd;stroke:#000000;stroke-width:0.625;stroke-linejoin:round;stroke-opacity:1"
         d="M 8.7185878,4.0337352 -2.2072895,0.01601326 8.7185884,-4.0017078 c -1.7454984,2.3720609 -1.7354408,5.6174519 -6e-7,8.035443 z"
         transform="scale(-0.6)"
         inkscape:connector-curvature="0" />
    </marker>
    <marker
       inkscape:isstock="true"
       style="overflow:visible"
       id="marker931"
       refX="0"
       refY="0"
       orient="auto"
       inkscape:stockid="Arrow2Mend">
      <path
         transform="scale(-0.6)"
         d="M 8.7185878,4.0337352 -2.2072895,0.01601326 8.7185884,-4.0017078 c -1.7454984,2.3720609 -1.7354408,5.6174519 -6e-7,8.035443 z"
         style="fill:#000000;fill-opacity:1;fill-rule:evenodd;stroke:#000000;stroke-width:0.625;stroke-linejoin:round;stroke-opacity:1"
         id="path929"
         inkscape:connector-curvature="0" />
    </marker>
    <marker
       inkscape:isstock="true"
       style="overflow:visible"
       id="marker904"
       refX="0"
       refY="0"
       orient="auto"
       inkscape:stockid="Arrow2Mend">
      <path
         transform="scale(-0.6)"
         d="M 8.7185878,4.0337352 -2.2072895,0.01601326 8.7185884,-4.0017078 c -1.7454984,2.3720609 -1.7354408,5.6174519 -6e-7,8.035443 z"
         style="fill:#000000;fill-opacity:1;fill-rule:evenodd;stroke:#000000;stroke-width:0.625;stroke-linejoin:round;stroke-opacity:1"
         id="path902"
         inkscape:connector-curvature="0" />
    </marker>
    <marker
       inkscape:stockid="Arrow2Mend"
       orient="auto"
       refY="0"
       refX="0"
       id="marker1003"
       style="overflow:visible"
       inkscape:isstock="true">
      <path
         id="path1001"
         style="fill:#000000;fill-opacity:1;fill-rule:evenodd;stroke:#000000;stroke-width:0.625;stroke-linejoin:round;stroke-opacity:1"
         d="M 8.7185878,4.0337352 -2.2072895,0.01601326 8.7185884,-4.0017078 c -1.7454984,2.3720609 -1.7354408,5.6174519 -6e-7,8.035443 z"
         transform="scale(-0.6)"
         inkscape:connector-curvature="0" />
    </marker>
    <marker
       inkscape:stockid="Arrow1Lend"
       orient="auto"
       refY="0"
       refX="0"
       id="Arrow1Lend"
       style="overflow:visible"
       inkscape:isstock="true">
      <path
         id="path867"
         d="M 0,0 5,-5 -12.5,0 5,5 Z"
         style="fill:#000000;fill-opacity:1;fill-rule:evenodd;stroke:#000000;stroke-width:1pt;stroke-opacity:1"
         transform="matrix(-0.8,0,0,-0.8,-10,0)"
         inkscape:connector-curvature="0" />
    </marker>
    <marker
       inkscape:stockid="Arrow2Mend"
       orient="auto"
       refY="0"
       refX="0"
       id="marker1079-6"
       style="overflow:visible"
       inkscape:isstock="true">
      <path
         id="path1077-2"
         style="fill:#000000;fill-opacity:1;fill-rule:evenodd;stroke:#000000;stroke-width:0.625;stroke-linejoin:round;stroke-opacity:1"
         d="M 8.7185878,4.0337352 -2.2072895,0.01601326 8.7185884,-4.0017078 c -1.7454984,2.3720609 -1.7354408,5.6174519 -6e-7,8.035443 z"
         transform="scale(-0.6)"
         inkscape:connector-curvature="0" />
    </marker>
  </defs>
  <sodipodi:namedview
     id="base"
     pagecolor="#ffffff"
     bordercolor="#666666"
     borderopacity="1.0"
     inkscape:pageopacity="0.0"
     inkscape:pageshadow="2"
     inkscape:zoom="0.50000001"
     inkscape:cx="259.99999"
     inkscape:cy="451.99999"
     inkscape:document-units="mm"
     inkscape:current-layer="g995"
     showgrid="false"
     inkscape:window-width="836"
     inkscape:window-height="975"
     inkscape:window-x="0"
     inkscape:window-y="54"
     inkscape:window-maximized="1"
     fit-margin-top="0"
     fit-margin-left="0"
     fit-margin-right="0"
     fit-margin-bottom="0"
     inkscape:showpageshadow="2"
     inkscape:pagecheckerboard="0"
     inkscape:deskcolor="#d1d1d1" />
  <metadata
     id="metadata5">
    <rdf:RDF>
      <cc:Work
         rdf:about="">
        <dc:format>image/svg+xml</dc:format>
        <dc:type
           rdf:resource="http://purl.org/dc/dcmitype/StillImage" />
      </cc:Work>
    </rdf:RDF>
  </metadata>
  <g
     inkscape:label="Layer 1"
     inkscape:groupmode="layer"
     id="layer1"
     transform="translate(-32.228196,-62.312941)">
    <flowRoot
       xml:space="preserve"
       id="flowRoot4825"
       style="font-style:normal;font-weight:normal;font-size:16px;line-height:1.25;font-family:sans-serif;letter-spacing:0px;word-spacing:0px;fill:#000000;fill-opacity:1;stroke:none"><flowRegion
         id="flowRegion4827"><rect
           id="rect4829"
           width="486.99423"
           height="331.26166"
           x="221.72095"
           y="296.34518" /></flowRegion><flowPara
         id="flowPara4831" /></flowRoot>
    <g
       id="g995"
       transform="translate(0,-0.12286888)">
      <rect
         y="8.505229"
         x="75.146431"
         height="26.396307"
         width="26.396309"
         id="rect1117"
         style="fill:none;fill-opacity:0.482587;stroke:#000000;stroke-width:0.5;stroke-miterlimit:4;stroke-dasharray:none;stroke-dashoffset:0;stroke-opacity:1"
         transform="rotate(44.777411)"
         ry="8.9926405" />
      <path
         d="m 52.478409,80.086117 c 1.318829,0.204161 2.553644,-0.699565 2.757828,-2.018485 0.204181,-1.318923 -0.699564,-2.553707 -2.018393,-2.757867 -1.319073,-0.204199 -2.553763,0.699549 -2.757947,2.018469 -0.204184,1.31892 0.699439,2.553685 2.018512,2.757883"
         style="fill:#d2b0db;fill-opacity:1;fill-rule:nonzero;stroke:none;stroke-width:0.0123601"
         id="path1119"
         inkscape:connector-curvature="0" />
      <path
         d="m 52.478409,80.086117 -0.02837,0.183217 c 1.42023,0.219733 2.74943,-0.753181 2.969413,-2.173339 0.219756,-1.420322 -0.753037,-2.749592 -2.173231,-2.969571 -1.420349,-0.219749 -2.749672,0.753146 -2.969675,2.173425 -0.219735,1.4202 0.75318,2.749489 2.173493,2.969485 l 0.02837,-0.183217 0.02838,-0.18334 c -0.609617,-0.09449 -1.121491,-0.426132 -1.459219,-0.887273 -0.33745,-0.461351 -0.498673,-1.049509 -0.404454,-1.658908 0.09448,-0.609484 0.426001,-1.121363 0.887153,-1.459086 0.461361,-0.337439 1.049531,-0.498659 1.659208,-0.404529 0.609358,0.09458 1.121249,0.426096 1.458977,0.887237 0.33745,0.461351 0.49867,1.049507 0.404435,1.65903 -0.09446,0.609362 -0.425981,1.121241 -0.887134,1.458964 -0.461361,0.337439 -1.049551,0.498781 -1.658966,0.404565 l -0.02838,0.18334"
         style="fill:#c59fd2;fill-opacity:1;fill-rule:nonzero;stroke:none;stroke-width:0.0123601"
         id="path1121"
         inkscape:connector-curvature="0" />
      <path
         inkscape:connector-curvature="0"
         id="path1123"
         style="fill:#a967ba;fill-opacity:1;fill-rule:nonzero;stroke:none;stroke-width:0.0123601"
         d="m 54.419423,80.03988 c 1.318829,0.20416 2.553642,-0.699566 2.757826,-2.018487 0.204184,-1.31892 -0.699563,-2.553706 -2.018391,-2.757866 -1.319073,-0.204198 -2.553764,0.699548 -2.757948,2.018468 -0.204184,1.318921 0.699441,2.553687 2.018513,2.757885" />
      <path
         inkscape:connector-curvature="0"
         id="path1125"
         style="fill:#8f45a8;fill-opacity:1;fill-rule:nonzero;stroke:none;stroke-width:0.0123601"
         d="m 54.419423,80.03988 -0.02836,0.183218 c 1.42023,0.219732 2.749429,-0.753182 2.969412,-2.173341 0.219756,-1.42032 -0.753039,-2.749592 -2.17323,-2.969569 -1.420352,-0.219752 -2.749674,0.753143 -2.969675,2.173425 -0.219738,1.420197 0.753179,2.749489 2.173493,2.969485 l 0.02836,-0.183218 0.02838,-0.183339 c -0.60962,-0.0945 -1.121491,-0.426132 -1.459221,-0.887275 -0.337448,-0.46135 -0.498671,-1.049508 -0.404454,-1.658907 0.09448,-0.609484 0.426002,-1.121363 0.887155,-1.459086 0.46136,-0.33744 1.049531,-0.498659 1.659208,-0.404529 0.609356,0.09458 1.121247,0.426095 1.458977,0.887238 0.337448,0.461349 0.49867,1.049507 0.404435,1.659029 -0.09446,0.609362 -0.425983,1.121241 -0.887136,1.458963 -0.46136,0.337441 -1.04955,0.498781 -1.658964,0.404567 l -0.02838,0.183339" />
      <path
         inkscape:connector-curvature="0"
         id="path1131"
         d="m 38.22249,77.676933 h 7.442194"
         style="fill:none;stroke:#000000;stroke-width:0.3;stroke-linecap:butt;stroke-linejoin:miter;stroke-miterlimit:4;stroke-dasharray:none;stroke-opacity:1;marker-end:url(#marker1079)"
         sodipodi:nodetypes="cc" />
      <path
         inkscape:connector-curvature="0"
         id="path1133"
         style="fill:#6a78c4;fill-opacity:1;fill-rule:nonzero;stroke:none;stroke-width:0.0123615"
         d="m 36.174207,79.359533 c 0.930425,0.957074 2.460597,0.978645 3.417672,0.04822 0.957075,-0.930423 0.978716,-2.460593 0.04829,-3.417667 -0.930433,-0.957083 -2.460631,-0.97868 -3.417706,-0.04826 -0.957076,0.930423 -0.97869,2.460618 -0.04826,3.417702" />
      <path
         inkscape:connector-curvature="0"
         id="path1135"
         style="fill:#4c5cb3;fill-opacity:1;fill-rule:nonzero;stroke:none;stroke-width:0.0123615"
         d="m 36.174207,79.359533 -0.132952,0.129249 c 1.001971,1.030492 2.649286,1.053744 3.679934,0.05199 1.030547,-1.002038 1.053815,-2.64935 0.05202,-3.680015 -1.002006,-1.030528 -2.649321,-1.053779 -3.680023,-0.0519 -1.030492,1.001916 -1.053761,2.649228 -0.05193,3.679929 l 0.132952,-0.129249 0.133041,-0.129336 c -0.429839,-0.442327 -0.639025,-1.015376 -0.631138,-1.586985 0.0083,-0.571569 0.233544,-1.138405 0.675672,-1.568359 0.442355,-0.429898 1.015326,-0.639076 1.586901,-0.631207 0.571605,0.0083 1.138431,0.233623 1.568535,0.675692 0.429716,0.442378 0.63899,1.01534 0.631137,1.586985 -0.0083,0.571533 -0.233577,1.138369 -0.675795,1.568409 -0.442266,0.429813 -1.015236,0.63899 -1.586777,0.631156 -0.57164,-0.0083 -1.138554,-0.233571 -1.568535,-0.675691 l -0.133041,0.129336" />
      <path
         transform="rotate(-150.17137)"
         d="m -85.198256,-36.425741 a 3.8080339,3.8080339 0 0 1 -4.328372,-1.690068 3.8080339,3.8080339 0 0 1 0.527902,-4.61654"
         sodipodi:end="3.9116453"
         sodipodi:start="1.2868568"
         sodipodi:ry="3.8080339"
         sodipodi:rx="3.8080339"
         sodipodi:cy="-40.081299"
         sodipodi:cx="-86.265038"
         sodipodi:type="arc"
         id="path1139"
         style="fill:none;fill-opacity:1;fill-rule:nonzero;stroke:#000000;stroke-width:0.3;stroke-linecap:round;stroke-linejoin:miter;stroke-miterlimit:4;stroke-dasharray:none;stroke-dashoffset:0;stroke-opacity:1;paint-order:markers stroke fill"
         sodipodi:open="true"
         sodipodi:arc-type="arc" />
      <path
         sodipodi:open="true"
         style="fill:none;fill-opacity:1;fill-rule:nonzero;stroke:#000000;stroke-width:0.3;stroke-linecap:round;stroke-linejoin:miter;stroke-miterlimit:4;stroke-dasharray:none;stroke-dashoffset:0;stroke-opacity:1;paint-order:markers stroke fill"
         id="path1141"
         sodipodi:type="arc"
         sodipodi:cx="-86.276085"
         sodipodi:cy="-40.102585"
         sodipodi:rx="5.2792978"
         sodipodi:ry="5.2792978"
         sodipodi:start="1.2868568"
         sodipodi:end="3.9116453"
         d="m -84.797145,-35.034674 a 5.2792978,5.2792978 0 0 1 -6.000671,-2.343038 5.2792978,5.2792978 0 0 1 0.73186,-6.400178"
         transform="rotate(-150.17137)"
         sodipodi:arc-type="arc" />
      <path
         inkscape:connector-curvature="0"
         id="path1147"
         style="fill:#eaa2a6;fill-opacity:1;fill-rule:nonzero;stroke:none;stroke-width:0.0123601"
         d="m 47.794041,80.575837 c -1.31883,-0.204159 -2.55364,0.699565 -2.757828,2.018486 -0.204179,1.318921 0.699561,2.553704 2.018394,2.757863 1.319069,0.204196 2.553764,-0.699544 2.757943,-2.018461 0.204188,-1.318926 -0.69944,-2.553692 -2.018509,-2.757888" />
      <path
         inkscape:connector-curvature="0"
         id="path1149"
         style="fill:#e59393;fill-opacity:1;fill-rule:nonzero;stroke:none;stroke-width:0.0123601"
         d="m 47.794001,80.575841 0.02835,-0.183223 c -1.420228,-0.219731 -2.749431,0.753182 -2.96941,2.173342 -0.219758,1.420321 0.753039,2.749592 2.173227,2.96957 1.420349,0.219747 2.749672,-0.753146 2.969678,-2.173427 0.219734,-1.420196 -0.753182,-2.749487 -2.173495,-2.969485 l -0.02835,0.183223 -0.02839,0.183336 c 0.609616,0.09449 1.121492,0.426132 1.459217,0.887273 0.337452,0.461349 0.498676,1.049508 0.404455,1.658908 -0.09448,0.609484 -0.425999,1.121364 -0.887152,1.459085 -0.461361,0.337445 -1.049533,0.49866 -1.659209,0.404532 -0.609359,-0.09459 -1.121252,-0.426096 -1.458976,-0.887237 -0.337449,-0.461357 -0.498672,-1.049508 -0.404436,-1.659032 0.09446,-0.60936 0.425984,-1.12124 0.887136,-1.458961 0.461357,-0.337445 1.049549,-0.498788 1.658965,-0.404568 l 0.02839,-0.183336" />
      <path
         d="m 45.47428,73.856662 c 0.788244,1.076998 2.300302,1.311166 3.377397,0.52285 1.076994,-0.788243 1.31099,-2.30033 0.522746,-3.377324 -0.788167,-1.076895 -2.300226,-1.311062 -3.377224,-0.522823 -1.077091,0.788316 -1.311086,2.300398 -0.522919,3.377297"
         style="fill:#a8d89d;fill-opacity:1;fill-rule:nonzero;stroke:none;stroke-width:0.01236"
         id="path1151"
         inkscape:connector-curvature="0" />
      <path
         d="m 45.474276,73.856662 -0.14972,0.109558 c 0.848928,1.159708 2.476823,1.411721 3.636676,0.562989 1.159607,-0.848857 1.411616,-2.476748 0.562884,-3.636604 -0.848781,-1.159508 -2.476748,-1.411616 -3.636504,-0.56296 -1.159704,0.848928 -1.41164,2.476924 -0.563056,3.636575 l 0.14972,-0.109558 0.149693,-0.109587 c -0.364186,-0.497603 -0.491626,-1.094047 -0.404356,-1.658928 0.08762,-0.56483 0.38951,-1.09472 0.887141,-1.459085 0.497678,-0.36409 1.094046,-0.49163 1.658928,-0.404356 0.56493,0.08754 1.094819,0.389434 1.459113,0.886964 0.364165,0.497779 0.491777,1.094251 0.404331,1.659105 -0.08755,0.56493 -0.389437,1.094819 -0.887036,1.459013 -0.497707,0.364261 -1.094074,0.491801 -1.659032,0.404431 -0.564754,-0.08752 -1.09482,-0.389437 -1.459089,-0.887144 l -0.149693,0.109587"
         style="fill:#9dce9a;fill-opacity:1;fill-rule:nonzero;stroke:none;stroke-width:0.01236"
         id="path1153"
         inkscape:connector-curvature="0" />
      <path
         d="m 47.79404,82.524418 c -1.318831,-0.204163 -2.553642,0.699564 -2.75783,2.018483 -0.204179,1.318921 0.699565,2.553704 2.018395,2.757867 1.319069,0.204196 2.553764,-0.699545 2.757947,-2.018464 0.204185,-1.318927 -0.699443,-2.55369 -2.018512,-2.757886"
         style="fill:#d64c53;fill-opacity:1;fill-rule:nonzero;stroke:none;stroke-width:0.0123601"
         id="path1155"
         inkscape:connector-curvature="0" />
      <path
         d="m 47.793984,82.524418 0.02836,-0.18322 c -1.420228,-0.219731 -2.749431,0.753181 -2.969411,2.173342 -0.219759,1.420319 0.753038,2.749593 2.17323,2.96957 1.42035,0.21975 2.749672,-0.753145 2.969677,-2.173428 0.219733,-1.420197 -0.753182,-2.749488 -2.173496,-2.969484 l -0.02836,0.18322 -0.02838,0.183337 c 0.609618,0.0945 1.12149,0.426132 1.459221,0.887275 0.337448,0.461348 0.498671,1.049506 0.404453,1.658905 -0.09448,0.609485 -0.426003,1.121366 -0.887155,1.459088 -0.461359,0.337442 -1.049529,0.49866 -1.659208,0.40453 -0.609357,-0.09458 -1.121249,-0.426096 -1.458977,-0.887236 -0.337448,-0.461354 -0.498668,-1.04951 -0.404434,-1.659033 0.09446,-0.60936 0.425983,-1.121238 0.887135,-1.45896 0.46136,-0.337443 1.049552,-0.498785 1.658965,-0.404569 l 0.02838,-0.183337"
         style="fill:#cd2e2f;fill-opacity:1;fill-rule:nonzero;stroke:none;stroke-width:0.0123601"
         id="path1157"
         inkscape:connector-curvature="0" />
      <path
         inkscape:connector-curvature="0"
         id="path1161"
         style="fill:#56b342;fill-opacity:1;fill-rule:nonzero;stroke:none;stroke-width:0.01236"
         d="m 45.474265,71.869176 c 0.788242,1.076995 2.300299,1.311161 3.377394,0.522847 1.076995,-0.788242 1.310989,-2.300326 0.522748,-3.377321 -0.788168,-1.076895 -2.300226,-1.311062 -3.377221,-0.52282 -1.077095,0.788314 -1.311089,2.300399 -0.522921,3.377294" />
      <path
         inkscape:connector-curvature="0"
         id="path1163"
         style="fill:#3b9c3b;fill-opacity:1;fill-rule:nonzero;stroke:none;stroke-width:0.01236"
         d="m 45.474265,71.869176 -0.14971,0.109571 c 0.84893,1.159706 2.476823,1.411717 3.636675,0.562986 1.159607,-0.848858 1.411618,-2.47675 0.562887,-3.636602 -0.848784,-1.159507 -2.47675,-1.411617 -3.636502,-0.562959 -1.159706,0.84893 -1.411645,2.476923 -0.56306,3.636575 l 0.14971,-0.109571 0.14971,-0.109571 c -0.364191,-0.497604 -0.491629,-1.094046 -0.404357,-1.658929 0.08762,-0.56483 0.389509,-1.09472 0.887139,-1.459084 0.497677,-0.364092 1.094046,-0.49163 1.658929,-0.404358 0.56493,0.08754 1.09482,0.389436 1.45911,0.886966 0.364165,0.497777 0.491776,1.094245 0.404331,1.659102 -0.08754,0.56493 -0.389435,1.094819 -0.887039,1.459011 -0.497704,0.364264 -1.094073,0.491802 -1.659029,0.404431 -0.564757,-0.08752 -1.09482,-0.389436 -1.459084,-0.887139 l -0.14971,0.109571" />
      <path
         sodipodi:open="true"
         style="fill:none;fill-opacity:1;fill-rule:nonzero;stroke:#000000;stroke-width:0.3;stroke-linecap:round;stroke-linejoin:miter;stroke-miterlimit:4;stroke-dasharray:none;stroke-dashoffset:0;stroke-opacity:1;paint-order:markers stroke fill"
         id="path1167"
         sodipodi:type="arc"
         sodipodi:cx="38.345772"
         sodipodi:cy="-75.636642"
         sodipodi:rx="3.8080339"
         sodipodi:ry="3.8080339"
         sodipodi:start="1.2868568"
         sodipodi:end="3.9116453"
         d="m 39.412553,-71.981085 a 3.8080339,3.8080339 0 0 1 -4.328372,-1.690067 3.8080339,3.8080339 0 0 1 0.527902,-4.616541"
         transform="rotate(119.08548)"
         sodipodi:arc-type="arc" />
      <path
         transform="rotate(119.08548)"
         d="m 39.818967,-70.580458 a 5.2792978,5.2792978 0 0 1 -6.000672,-2.343038 5.2792978,5.2792978 0 0 1 0.731861,-6.400178"
         sodipodi:end="3.9116453"
         sodipodi:start="1.2868568"
         sodipodi:ry="5.2792978"
         sodipodi:rx="5.2792978"
         sodipodi:cy="-75.648369"
         sodipodi:cx="38.340027"
         sodipodi:type="arc"
         id="path1169"
         style="fill:none;fill-opacity:1;fill-rule:nonzero;stroke:#000000;stroke-width:0.3;stroke-linecap:round;stroke-linejoin:miter;stroke-miterlimit:4;stroke-dasharray:none;stroke-dashoffset:0;stroke-opacity:1;paint-order:markers stroke fill"
         sodipodi:open="true"
         sodipodi:arc-type="arc" />
      <path
         transform="matrix(-0.52717326,-0.84975782,-0.84975782,0.52717326,0,0)"
         d="m -96.180381,8.2251547 a 3.8080339,3.8080339 0 0 1 -4.328369,-1.6900674 3.8080339,3.8080339 0 0 1 0.5279,-4.6165406"
         sodipodi:end="3.9116453"
         sodipodi:start="1.2868568"
         sodipodi:ry="3.8080339"
         sodipodi:rx="3.8080339"
         sodipodi:cy="4.5695972"
         sodipodi:cx="-97.247162"
         sodipodi:type="arc"
         id="path1171"
         style="fill:none;fill-opacity:1;fill-rule:nonzero;stroke:#000000;stroke-width:0.3;stroke-linecap:round;stroke-linejoin:miter;stroke-miterlimit:4;stroke-dasharray:none;stroke-dashoffset:0;stroke-opacity:1;paint-order:markers stroke fill"
         sodipodi:open="true"
         sodipodi:arc-type="arc" />
      <path
         sodipodi:open="true"
         style="fill:none;fill-opacity:1;fill-rule:nonzero;stroke:#000000;stroke-width:0.3;stroke-linecap:round;stroke-linejoin:miter;stroke-miterlimit:4;stroke-dasharray:none;stroke-dashoffset:0;stroke-opacity:1;paint-order:markers stroke fill"
         id="path1173"
         sodipodi:type="arc"
         sodipodi:cx="-97.258202"
         sodipodi:cy="4.5483122"
         sodipodi:rx="5.2792978"
         sodipodi:ry="5.2792978"
         sodipodi:start="1.2868568"
         sodipodi:end="3.9116453"
         d="m -95.779261,9.6162231 a 5.2792978,5.2792978 0 0 1 -6.000669,-2.3430383 5.2792978,5.2792978 0 0 1 0.73186,-6.40017739"
         transform="matrix(-0.52717326,-0.84975782,-0.84975782,0.52717326,0,0)"
         sodipodi:arc-type="arc" />
      <text
         xml:space="preserve"
         style="font-style:normal;font-weight:normal;font-size:20.1873px;line-height:5.91426px;font-family:Sans;letter-spacing:0px;word-spacing:0px;fill:#1a1a1a;fill-opacity:1;stroke:none;stroke-width:0.23657px;stroke-linecap:butt;stroke-linejoin:miter;stroke-opacity:1"
         x="67.992302"
         y="80.763748"
         id="text819-6"
         transform="scale(0.94307122,1.0603653)"><tspan
           sodipodi:role="line"
           id="tspan817-7"
           x="67.992302"
           y="80.763748"
           style="font-style:normal;font-variant:normal;font-weight:normal;font-stretch:normal;font-size:20.1873px;font-family:'Tamil MN';-inkscape-font-specification:'Tamil MN';fill:#1a1a1a;stroke-width:0.23657px">JuliaMolsim</tspan></text>
    </g>
  </g>
</svg>
